<svg xmlns="http://www.w3.org/2000/svg" viewBox="0 0 384 512" macsvgid="102CFD38-67A2-436D-88A1-8ECF927AC8E5-36995-00000265D3B3DF77" id="svg2" style="fill: white;"><!--! Font Awesome Pro 6.4.0 by @fontawesome - https://fontawesome.com License - https://fontawesome.com/license (Commercial License) Copyright 2023 Fonticons, Inc. --><path d="M223.5,32 C100,32 0,132.3 0,256 S100,480 223.5,480 c60.6,0 115.5,-24.2 155.8,-63.4 c5,-4.9 6.3,-12.5 3.1,-18.7 s-10.1,-9.7 -17,-8.5 c-9.8,1.7 -19.8,2.6 -30.1,2.6 c-96.9,0 -175.5,-78.8 -175.5,-176 c0,-65.8 36,-123.1 89.3,-153.3 c6.1,-3.5 9.2,-10.5 7.7,-17.3 s-7.3,-11.9 -14.3,-12.5 c-6.3,-.5 -12.6,-.8 -19,-.8 " macsvgid="33B382E9-2464-4779-A8C0-1787574790CF-36995-00000265D3B3E090"/></svg>